<svg xmlns="http://www.w3.org/2000/svg" xmlns:xlink="http://www.w3.org/1999/xlink" width="500" zoomAndPan="magnify" viewBox="0 0 375 374.999991" height="500" preserveAspectRatio="xMidYMid meet" version="1.0"><defs><filter x="0%" y="0%" width="100%" height="100%" id="id1"><feColorMatrix values="0 0 0 0 1 0 0 0 0 1 0 0 0 0 1 0 0 0 1 0" color-interpolation-filters="sRGB"/></filter><g/><clipPath id="id2"><path d="M 22.929688 30.183594 L 217.929688 30.183594 L 217.929688 281.433594 L 22.929688 281.433594 Z M 22.929688 30.183594 " clip-rule="nonzero"/></clipPath><clipPath id="id3"><path d="M 50.871094 17.140625 L 320.121094 17.140625 L 320.121094 263.140625 L 50.871094 263.140625 Z M 50.871094 17.140625 " clip-rule="nonzero"/></clipPath><mask id="id4"><g filter="url(#id1)"><rect x="-37.5" width="450" fill="#000000" y="-37.499999" height="449.999989" fill-opacity="0.8392"/></g></mask><clipPath id="id5"><rect x="0" width="319" y="0" height="49"/></clipPath><clipPath id="id6"><path d="M 260.8125 30.183594 L 348.5625 30.183594 L 348.5625 279.933594 L 260.8125 279.933594 Z M 260.8125 30.183594 " clip-rule="nonzero"/></clipPath><clipPath id="id7"><path d="M 138.164062 277.867188 L 186.011719 277.867188 L 186.011719 325.714844 L 138.164062 325.714844 Z M 138.164062 277.867188 " clip-rule="nonzero"/></clipPath><clipPath id="id8"><path d="M 136.726562 276.429688 L 187.402344 276.429688 L 187.402344 327.105469 L 136.726562 327.105469 Z M 136.726562 276.429688 " clip-rule="nonzero"/></clipPath><clipPath id="id9"><path d="M 145 293 L 174 293 L 174 327.105469 L 145 327.105469 Z M 145 293 " clip-rule="nonzero"/></clipPath></defs><g clip-path="url(#id2)"><path fill="#90be6d" d="M 186.054688 356.433594 C 96.132812 356.433594 22.929688 283.230469 22.929688 193.308594 C 22.929688 103.390625 96.132812 30.183594 186.054688 30.183594 C 275.972656 30.183594 349.179688 103.390625 349.179688 193.308594 C 349.179688 283.230469 275.972656 356.433594 186.054688 356.433594 Z M 186.054688 32.59375 C 97.417969 32.59375 25.339844 104.675781 25.339844 193.308594 C 25.339844 281.941406 97.417969 354.023438 186.054688 354.023438 C 274.6875 354.023438 346.765625 281.941406 346.765625 193.308594 C 346.765625 104.675781 274.6875 32.59375 186.054688 32.59375 Z M 186.054688 32.59375 " fill-opacity="1" fill-rule="nonzero"/></g><g clip-path="url(#id3)"><path fill="#bfe4a3" d="M 315.664062 277.414062 L 311.175781 277.414062 L 311.175781 201.128906 C 311.175781 200.832031 311.144531 200.539062 311.089844 200.25 C 311.03125 199.960938 310.945312 199.683594 310.832031 199.410156 C 310.722656 199.136719 310.582031 198.878906 310.417969 198.632812 C 310.253906 198.390625 310.070312 198.164062 309.859375 197.953125 C 309.652344 197.746094 309.425781 197.558594 309.179688 197.394531 C 308.9375 197.230469 308.675781 197.09375 308.40625 196.980469 C 308.132812 196.867188 307.851562 196.785156 307.5625 196.726562 C 307.273438 196.667969 306.980469 196.640625 306.6875 196.640625 L 279.761719 196.640625 C 279.46875 196.640625 279.175781 196.667969 278.886719 196.726562 C 278.597656 196.785156 278.316406 196.867188 278.046875 196.980469 C 277.773438 197.09375 277.515625 197.230469 277.269531 197.394531 C 277.023438 197.558594 276.796875 197.746094 276.589844 197.953125 C 276.382812 198.164062 276.195312 198.390625 276.03125 198.632812 C 275.867188 198.878906 275.730469 199.136719 275.617188 199.410156 C 275.503906 199.683594 275.417969 199.960938 275.363281 200.25 C 275.304688 200.539062 275.273438 200.832031 275.273438 201.128906 L 275.273438 277.414062 L 257.324219 277.414062 L 257.324219 21.628906 C 257.324219 21.332031 257.296875 21.039062 257.238281 20.75 C 257.179688 20.460938 257.097656 20.183594 256.984375 19.910156 C 256.871094 19.636719 256.734375 19.378906 256.570312 19.132812 C 256.40625 18.890625 256.21875 18.664062 256.011719 18.453125 C 255.800781 18.246094 255.574219 18.058594 255.332031 17.894531 C 255.085938 17.730469 254.828125 17.59375 254.554688 17.480469 C 254.28125 17.367188 254.003906 17.285156 253.714844 17.226562 C 253.425781 17.167969 253.132812 17.140625 252.835938 17.140625 L 225.914062 17.140625 C 225.617188 17.140625 225.328125 17.167969 225.039062 17.226562 C 224.75 17.285156 224.46875 17.367188 224.195312 17.480469 C 223.921875 17.59375 223.664062 17.730469 223.417969 17.894531 C 223.175781 18.058594 222.949219 18.246094 222.738281 18.453125 C 222.53125 18.664062 222.34375 18.890625 222.179688 19.132812 C 222.019531 19.378906 221.878906 19.636719 221.765625 19.910156 C 221.652344 20.183594 221.570312 20.460938 221.511719 20.75 C 221.453125 21.039062 221.425781 21.332031 221.425781 21.628906 L 221.425781 277.414062 L 203.476562 277.414062 L 203.476562 70.988281 C 203.476562 70.695312 203.445312 70.402344 203.390625 70.113281 C 203.332031 69.824219 203.246094 69.542969 203.132812 69.273438 C 203.019531 69 202.882812 68.742188 202.71875 68.496094 C 202.554688 68.25 202.371094 68.023438 202.160156 67.816406 C 201.953125 67.609375 201.726562 67.421875 201.480469 67.257812 C 201.234375 67.09375 200.976562 66.957031 200.703125 66.84375 C 200.433594 66.730469 200.152344 66.644531 199.863281 66.589844 C 199.574219 66.53125 199.28125 66.503906 198.988281 66.503906 L 172.0625 66.503906 C 171.769531 66.503906 171.476562 66.53125 171.1875 66.589844 C 170.898438 66.644531 170.617188 66.730469 170.34375 66.84375 C 170.074219 66.957031 169.816406 67.09375 169.570312 67.257812 C 169.324219 67.421875 169.097656 67.609375 168.890625 67.816406 C 168.679688 68.023438 168.496094 68.25 168.332031 68.496094 C 168.167969 68.742188 168.03125 69 167.917969 69.273438 C 167.804688 69.542969 167.71875 69.824219 167.660156 70.113281 C 167.605469 70.402344 167.574219 70.695312 167.574219 70.988281 L 167.574219 277.414062 L 149.625 277.414062 L 149.625 156.253906 C 149.625 155.957031 149.597656 155.664062 149.539062 155.375 C 149.480469 155.085938 149.394531 154.808594 149.285156 154.535156 C 149.171875 154.261719 149.03125 154.003906 148.867188 153.757812 C 148.707031 153.515625 148.519531 153.289062 148.3125 153.078125 C 148.101562 152.871094 147.875 152.683594 147.628906 152.519531 C 147.386719 152.355469 147.128906 152.21875 146.855469 152.105469 C 146.582031 151.992188 146.300781 151.910156 146.011719 151.851562 C 145.722656 151.792969 145.433594 151.765625 145.136719 151.765625 L 118.210938 151.765625 C 117.917969 151.765625 117.625 151.792969 117.335938 151.851562 C 117.046875 151.910156 116.769531 151.992188 116.496094 152.105469 C 116.222656 152.21875 115.964844 152.355469 115.71875 152.519531 C 115.472656 152.683594 115.246094 152.871094 115.039062 153.078125 C 114.832031 153.289062 114.644531 153.515625 114.480469 153.757812 C 114.316406 154.003906 114.179688 154.261719 114.066406 154.535156 C 113.953125 154.808594 113.867188 155.085938 113.8125 155.375 C 113.753906 155.664062 113.726562 155.957031 113.726562 156.253906 L 113.726562 277.414062 L 95.773438 277.414062 L 95.773438 111.378906 C 95.773438 111.082031 95.746094 110.789062 95.6875 110.5 C 95.632812 110.210938 95.546875 109.933594 95.433594 109.660156 C 95.320312 109.386719 95.183594 109.128906 95.019531 108.882812 C 94.855469 108.640625 94.667969 108.414062 94.460938 108.203125 C 94.253906 107.996094 94.027344 107.808594 93.78125 107.644531 C 93.535156 107.480469 93.277344 107.34375 93.003906 107.230469 C 92.734375 107.117188 92.453125 107.035156 92.164062 106.976562 C 91.875 106.917969 91.582031 106.890625 91.289062 106.890625 L 64.363281 106.890625 C 64.066406 106.890625 63.777344 106.917969 63.488281 106.976562 C 63.199219 107.035156 62.917969 107.117188 62.644531 107.230469 C 62.375 107.34375 62.113281 107.480469 61.871094 107.644531 C 61.625 107.808594 61.398438 107.996094 61.191406 108.203125 C 60.980469 108.414062 60.796875 108.640625 60.632812 108.882812 C 60.46875 109.128906 60.328125 109.386719 60.214844 109.660156 C 60.105469 109.933594 60.019531 110.210938 59.960938 110.5 C 59.902344 110.789062 59.875 111.082031 59.875 111.378906 L 59.875 277.414062 L 55.386719 277.414062 C 55.09375 277.414062 54.800781 277.445312 54.511719 277.5 C 54.222656 277.558594 53.941406 277.644531 53.671875 277.757812 C 53.398438 277.867188 53.140625 278.007812 52.894531 278.171875 C 52.648438 278.335938 52.421875 278.519531 52.214844 278.730469 C 52.007812 278.9375 51.820312 279.164062 51.65625 279.410156 C 51.492188 279.652344 51.355469 279.914062 51.242188 280.183594 C 51.128906 280.457031 51.042969 280.738281 50.988281 281.027344 C 50.929688 281.316406 50.898438 281.609375 50.898438 281.902344 C 50.898438 282.195312 50.929688 282.488281 50.988281 282.777344 C 51.042969 283.066406 51.128906 283.347656 51.242188 283.621094 C 51.355469 283.890625 51.492188 284.148438 51.65625 284.394531 C 51.820312 284.640625 52.007812 284.867188 52.214844 285.074219 C 52.421875 285.285156 52.648438 285.46875 52.894531 285.632812 C 53.140625 285.796875 53.398438 285.933594 53.671875 286.046875 C 53.941406 286.160156 54.222656 286.246094 54.511719 286.304688 C 54.800781 286.359375 55.09375 286.390625 55.386719 286.390625 L 315.664062 286.390625 C 315.957031 286.390625 316.25 286.359375 316.539062 286.304688 C 316.828125 286.246094 317.109375 286.160156 317.378906 286.046875 C 317.652344 285.933594 317.910156 285.796875 318.15625 285.632812 C 318.402344 285.46875 318.628906 285.285156 318.835938 285.074219 C 319.042969 284.867188 319.230469 284.640625 319.394531 284.394531 C 319.558594 284.148438 319.695312 283.890625 319.808594 283.621094 C 319.921875 283.347656 320.007812 283.066406 320.0625 282.777344 C 320.121094 282.488281 320.148438 282.195312 320.148438 281.902344 C 320.148438 281.609375 320.121094 281.316406 320.0625 281.027344 C 320.007812 280.738281 319.921875 280.457031 319.808594 280.183594 C 319.695312 279.914062 319.558594 279.652344 319.394531 279.410156 C 319.230469 279.164062 319.042969 278.9375 318.835938 278.730469 C 318.628906 278.519531 318.402344 278.335938 318.15625 278.171875 C 317.910156 278.007812 317.652344 277.867188 317.378906 277.757812 C 317.109375 277.644531 316.828125 277.558594 316.539062 277.5 C 316.25 277.445312 315.957031 277.414062 315.664062 277.414062 Z M 315.664062 277.414062 " fill-opacity="1" fill-rule="nonzero"/></g><g mask="url(#id4)"><g transform="matrix(1, 0, 0, 1, 28, 281)"><g clip-path="url(#id5)"><g fill="#4d908e" fill-opacity="1"><g transform="translate(1.221185, 38.903045)"><g><path d="M 18.148438 -36.933594 L 4.222656 -36.933594 L 4.222656 0 L 18.148438 0 C 29.019531 0 36.882812 -7.757812 36.882812 -18.46875 C 36.882812 -29.175781 29.019531 -36.933594 18.148438 -36.933594 Z M 17.992188 -7.386719 L 12.1875 -7.386719 L 12.1875 -29.496094 L 17.992188 -29.496094 C 24.324219 -29.496094 28.703125 -25.007812 28.703125 -18.46875 C 28.703125 -12.03125 24.324219 -7.386719 17.992188 -7.386719 Z M 17.992188 -7.386719 "/></g></g></g><g fill="#4d908e" fill-opacity="1"><g transform="translate(40.314715, 38.903045)"><g><path d="M 18.148438 -22.109375 L 25.378906 -33.664062 L 25.378906 -35.085938 L 3.007812 -35.085938 L 3.007812 -28.332031 L 15.039062 -28.332031 L 8.652344 -17.78125 L 8.652344 -16.355469 L 13.769531 -16.355469 C 16.988281 -16.355469 19.101562 -14.457031 19.101562 -11.503906 C 19.101562 -8.496094 17.09375 -6.382812 14.296875 -6.382812 C 11.609375 -6.382812 9.8125 -8.230469 9.707031 -11.027344 L 2.164062 -11.027344 C 2.375 -4.117188 7.335938 0.632812 14.296875 0.632812 C 21.421875 0.632812 26.699219 -4.378906 26.699219 -11.238281 C 26.699219 -16.726562 23.320312 -20.894531 18.148438 -22.109375 Z M 18.148438 -22.109375 "/></g></g></g><g fill="#4d908e" fill-opacity="1"><g transform="translate(69.384263, 38.903045)"><g><path d="M 27.59375 -36.933594 L 27.59375 -14.402344 L 11.398438 -36.933594 L 4.222656 -36.933594 L 4.222656 0 L 12.03125 0 L 12.03125 -23.058594 L 28.753906 0 L 35.457031 0 L 35.457031 -36.933594 Z M 27.59375 -36.933594 "/></g></g></g><g fill="#4d908e" fill-opacity="1"><g transform="translate(109.057116, 38.903045)"><g/></g></g><g fill="#4d908e" fill-opacity="1"><g transform="translate(121.666227, 38.903045)"><g/></g></g><g fill="#4d908e" fill-opacity="1"><g transform="translate(134.275338, 38.903045)"><g/></g></g><g fill="#4d908e" fill-opacity="1"><g transform="translate(146.884449, 38.903045)"><g/></g></g><g fill="#4d908e" fill-opacity="1"><g transform="translate(159.493559, 38.903045)"><g/></g></g><g fill="#4d908e" fill-opacity="1"><g transform="translate(172.092268, 38.903045)"><g><path d="M 18.148438 -36.933594 L 4.222656 -36.933594 L 4.222656 0 L 18.148438 0 C 29.019531 0 36.882812 -7.757812 36.882812 -18.46875 C 36.882812 -29.175781 29.019531 -36.933594 18.148438 -36.933594 Z M 17.992188 -7.386719 L 12.1875 -7.386719 L 12.1875 -29.496094 L 17.992188 -29.496094 C 24.324219 -29.496094 28.703125 -25.007812 28.703125 -18.46875 C 28.703125 -12.03125 24.324219 -7.386719 17.992188 -7.386719 Z M 17.992188 -7.386719 "/></g></g></g><g fill="#4d908e" fill-opacity="1"><g transform="translate(211.185798, 38.903045)"><g><path d="M 28.703125 0 L 37.410156 0 L 22.476562 -36.933594 L 14.933594 -36.933594 L 0.421875 0 L 8.917969 0 L 11.449219 -6.964844 L 26.117188 -6.964844 Z M 18.785156 -27.171875 L 23.636719 -13.929688 L 13.929688 -13.929688 Z M 18.785156 -27.171875 "/></g></g></g><g fill="#4d908e" fill-opacity="1"><g transform="translate(249.065899, 38.903045)"><g><path d="M 29.652344 -36.933594 L 1.109375 -36.933594 L 1.109375 -29.496094 L 11.398438 -29.496094 L 11.398438 0 L 19.363281 0 L 19.363281 -29.496094 L 29.652344 -29.496094 Z M 29.652344 -36.933594 "/></g></g></g><g fill="#4d908e" fill-opacity="1"><g transform="translate(279.876448, 38.903045)"><g><path d="M 28.703125 0 L 37.410156 0 L 22.476562 -36.933594 L 14.933594 -36.933594 L 0.421875 0 L 8.917969 0 L 11.449219 -6.964844 L 26.117188 -6.964844 Z M 18.785156 -27.171875 L 23.636719 -13.929688 L 13.929688 -13.929688 Z M 18.785156 -27.171875 "/></g></g></g></g></g></g><g clip-path="url(#id6)"><path fill="#90be6d" d="M 185.527344 356.433594 C 95.605469 356.433594 22.402344 283.230469 22.402344 193.308594 C 22.402344 103.390625 95.605469 30.183594 185.527344 30.183594 C 275.445312 30.183594 348.652344 103.390625 348.652344 193.308594 C 348.652344 283.230469 275.445312 356.433594 185.527344 356.433594 Z M 185.527344 32.59375 C 96.890625 32.59375 24.8125 104.675781 24.8125 193.308594 C 24.8125 281.941406 96.890625 354.023438 185.527344 354.023438 C 274.160156 354.023438 346.238281 281.941406 346.238281 193.308594 C 346.238281 104.675781 274.160156 32.59375 185.527344 32.59375 Z M 185.527344 32.59375 " fill-opacity="1" fill-rule="nonzero"/></g><g clip-path="url(#id7)"><path fill="#fefae0" d="M 162.085938 277.867188 C 148.875 277.867188 138.164062 288.578125 138.164062 301.792969 C 138.164062 315.003906 148.875 325.714844 162.085938 325.714844 C 175.300781 325.714844 186.011719 315.003906 186.011719 301.792969 C 186.011719 288.578125 175.300781 277.867188 162.085938 277.867188 " fill-opacity="1" fill-rule="nonzero"/></g><path fill="#90be6d" d="M 151.914062 301.148438 C 151.65625 301.148438 151.390625 301.085938 151.136719 300.953125 C 151.132812 300.953125 151.132812 300.953125 151.128906 300.953125 C 150.59375 300.675781 150.273438 300.125 150.292969 299.519531 C 150.3125 298.90625 150.679688 298.367188 151.242188 298.113281 C 151.433594 298.027344 151.652344 297.976562 151.886719 297.976562 C 152.753906 297.976562 153.457031 298.6875 153.457031 299.5625 C 153.457031 299.867188 153.371094 300.160156 153.210938 300.417969 C 152.933594 300.882812 152.441406 301.148438 151.914062 301.148438 Z M 151.90625 299.035156 C 151.726562 299.035156 151.515625 299.125 151.410156 299.308594 C 151.375 299.359375 151.347656 299.460938 151.347656 299.558594 C 151.347656 299.929688 151.777344 300.191406 152.117188 300.035156 C 152.277344 299.96875 152.398438 299.785156 152.402344 299.585938 C 152.410156 299.378906 152.289062 299.175781 152.101562 299.078125 L 151.617188 300.015625 L 152.097656 299.074219 C 152.042969 299.046875 151.980469 299.035156 151.90625 299.035156 Z M 151.90625 299.035156 " fill-opacity="1" fill-rule="nonzero"/><g clip-path="url(#id8)"><path fill="#90be6d" d="M 162.0625 327.105469 C 160.816406 327.105469 159.570312 327.066406 158.984375 326.984375 C 153.863281 326.292969 149.5 324.386719 145.648438 321.160156 C 144.570312 320.207031 143.625 319.261719 142.695312 318.207031 C 142.6875 318.203125 142.679688 318.195312 142.671875 318.183594 C 139.449219 314.332031 137.542969 309.972656 136.847656 304.851562 C 136.6875 303.671875 136.6875 299.875 136.847656 298.695312 C 137.539062 293.574219 139.445312 289.214844 142.671875 285.363281 C 143.628906 284.28125 144.578125 283.332031 145.628906 282.40625 C 149.542969 279.125 154.367188 277.050781 159.234375 276.539062 L 159.894531 276.472656 C 159.925781 276.46875 160.097656 276.449219 160.125 276.449219 C 160.878906 276.433594 161.707031 276.425781 162.355469 276.441406 C 163.84375 276.453125 164.613281 276.488281 165.179688 276.566406 C 170.261719 277.246094 174.613281 279.152344 178.480469 282.386719 C 179.5625 283.34375 180.507812 284.289062 181.4375 285.339844 C 184.679688 289.214844 186.585938 293.578125 187.277344 298.695312 C 187.441406 299.875 187.441406 303.675781 187.277344 304.855469 C 186.589844 309.972656 184.683594 314.332031 181.457031 318.1875 C 180.496094 319.269531 179.546875 320.21875 178.5 321.144531 C 174.625 324.386719 170.265625 326.292969 165.144531 326.988281 C 164.554688 327.0625 163.308594 327.105469 162.0625 327.105469 Z M 144.28125 316.816406 C 145.152344 317.796875 146.039062 318.683594 146.988281 319.527344 C 150.542969 322.503906 154.550781 324.253906 159.265625 324.890625 C 160.261719 325.027344 163.867188 325.027344 164.855469 324.890625 C 169.566406 324.25 173.582031 322.5 177.121094 319.539062 C 178.078125 318.691406 178.96875 317.804688 179.820312 316.84375 C 182.796875 313.289062 184.546875 309.277344 185.183594 304.566406 C 185.320312 303.574219 185.320312 299.96875 185.183594 298.980469 C 184.542969 294.265625 182.792969 290.253906 179.832031 286.710938 C 178.984375 285.753906 178.09375 284.863281 177.136719 284.015625 C 173.570312 281.03125 169.570312 279.28125 164.898438 278.65625 C 164.429688 278.59375 163.710938 278.566406 162.324219 278.550781 L 161.386719 278.542969 C 160.980469 278.542969 160.578125 278.546875 160.179688 278.554688 L 159.433594 278.636719 C 155 279.101562 150.578125 281.007812 147.003906 284 C 146.042969 284.851562 145.152344 285.738281 144.304688 286.699219 C 141.328125 290.25 139.578125 294.261719 138.9375 298.972656 C 138.804688 299.96875 138.804688 303.574219 138.9375 304.566406 C 139.578125 309.273438 141.328125 313.28125 144.28125 316.816406 Z M 144.28125 316.816406 " fill-opacity="1" fill-rule="nonzero"/></g><path fill="#90be6d" d="M 161.472656 295.816406 C 161.429688 295.816406 161.386719 295.816406 161.34375 295.808594 C 160.789062 295.738281 160.382812 295.25 160.417969 294.695312 C 160.453125 294.140625 160.914062 293.707031 161.46875 293.707031 C 162.054688 293.707031 162.53125 294.179688 162.53125 294.761719 C 162.53125 295.066406 162.398438 295.351562 162.171875 295.554688 C 161.980469 295.726562 161.730469 295.816406 161.472656 295.816406 Z M 161.726562 293.738281 L 161.730469 293.738281 Z M 161.726562 293.738281 " fill-opacity="1" fill-rule="nonzero"/><g clip-path="url(#id9)"><path fill="#90be6d" d="M 160.859375 327.085938 C 160.277344 327.085938 159.804688 326.613281 159.804688 326.03125 L 159.804688 324.085938 C 159.804688 323.832031 159.820312 323.386719 159.839844 322.90625 L 159.871094 322.027344 C 160.066406 318.441406 160.03125 314.1875 159.792969 311.882812 C 159.660156 310.441406 159.402344 308.960938 159.308594 308.703125 C 159.226562 308.464844 159.210938 308.125 159.304688 307.886719 C 158.125 308.210938 156.910156 308.46875 156.027344 308.5625 C 154.675781 308.632812 153.175781 308.613281 151.671875 308.359375 C 150.796875 308.222656 149.484375 307.675781 148.570312 307.199219 C 147.175781 306.488281 146.285156 305.457031 146 304.21875 C 145.851562 303.5 145.914062 302.339844 146.0625 301.695312 C 146.28125 300.886719 146.773438 299.871094 147.246094 299.25 C 149.191406 296.675781 153.058594 294.53125 157.101562 293.78125 C 158.382812 293.539062 160.082031 293.5 161.632812 293.707031 C 163.117188 293.933594 164.472656 294.367188 165.792969 295.035156 C 166.726562 295.503906 167.164062 295.871094 168.082031 296.726562 C 169.507812 298.101562 170.359375 299.269531 171.144531 300.90625 C 172.304688 303.269531 172.75 305.300781 173.292969 310.761719 C 173.554688 313.214844 173.867188 317.570312 173.933594 319.273438 C 173.941406 319.382812 173.949219 320.207031 173.957031 321.285156 L 173.972656 323.542969 C 173.980469 324.125 173.511719 324.601562 172.929688 324.609375 C 172.925781 324.609375 172.921875 324.609375 172.917969 324.609375 C 172.34375 324.609375 171.871094 324.144531 171.863281 323.5625 L 171.847656 321.296875 C 171.839844 320.316406 171.835938 319.5625 171.824219 319.390625 C 171.761719 317.675781 171.453125 313.398438 171.195312 310.976562 C 170.679688 305.808594 170.277344 303.929688 169.246094 301.828125 C 168.566406 300.410156 167.859375 299.445312 166.628906 298.257812 C 165.8125 297.496094 165.527344 297.261719 164.84375 296.921875 C 163.707031 296.34375 162.59375 295.988281 161.339844 295.796875 C 160.054688 295.625 158.546875 295.65625 157.488281 295.851562 C 153.988281 296.5 150.550781 298.375 148.925781 300.519531 C 148.621094 300.925781 148.253906 301.683594 148.113281 302.199219 C 148.023438 302.589844 147.992188 303.421875 148.0625 303.761719 C 148.203125 304.359375 148.699219 304.890625 149.535156 305.316406 C 150.539062 305.839844 151.558594 306.195312 152.011719 306.269531 C 153.378906 306.496094 154.796875 306.503906 155.867188 306.445312 C 157.300781 306.296875 159.960938 305.582031 161.289062 304.976562 C 161.476562 304.882812 162.035156 304.628906 162.445312 304.628906 C 163.148438 304.628906 163.808594 305.015625 164.164062 305.632812 C 164.476562 306.183594 164.480469 306.824219 164.175781 307.339844 C 163.886719 307.832031 162.992188 308.351562 161.507812 308.886719 C 161.683594 309.804688 161.828125 310.992188 161.890625 311.671875 C 162.140625 314.054688 162.175781 318.449219 161.976562 322.105469 L 161.945312 322.972656 C 161.929688 323.421875 161.914062 323.839844 161.914062 324.074219 L 161.914062 326.015625 C 161.914062 326.613281 161.441406 327.085938 160.859375 327.085938 Z M 160.859375 327.085938 " fill-opacity="1" fill-rule="nonzero"/></g><path fill="#90be6d" d="M 156.21875 301.792969 C 155.945312 301.792969 155.675781 301.722656 155.433594 301.582031 C 155.425781 301.578125 155.417969 301.570312 155.40625 301.566406 C 154.929688 301.273438 154.644531 300.765625 154.644531 300.210938 C 154.644531 299.648438 154.933594 299.144531 155.410156 298.847656 C 155.898438 298.554688 156.511719 298.550781 157.007812 298.835938 C 157.503906 299.121094 157.8125 299.640625 157.8125 300.203125 C 157.8125 300.765625 157.503906 301.296875 157.011719 301.578125 C 156.765625 301.722656 156.492188 301.792969 156.21875 301.792969 Z M 156.214844 299.683594 C 156.125 299.683594 156.035156 299.703125 155.957031 299.75 C 155.800781 299.839844 155.703125 300.011719 155.703125 300.203125 C 155.703125 300.398438 155.804688 300.582031 155.964844 300.671875 C 156.125 300.761719 156.332031 300.757812 156.5 300.65625 C 156.664062 300.554688 156.757812 300.390625 156.757812 300.210938 C 156.757812 300.027344 156.660156 299.855469 156.511719 299.765625 L 155.960938 300.667969 L 156.492188 299.753906 C 156.410156 299.707031 156.3125 299.683594 156.214844 299.683594 Z M 156.214844 299.683594 " fill-opacity="1" fill-rule="nonzero"/></svg>