<svg xmlns="http://www.w3.org/2000/svg" xmlns:xlink="http://www.w3.org/1999/xlink" width="500" zoomAndPan="magnify" viewBox="0 0 375 374.999991" height="500" preserveAspectRatio="xMidYMid meet" version="1.0"><defs><clipPath id="id1"><path d="M 14.105469 39.03125 L 360.605469 39.03125 L 360.605469 336.03125 L 14.105469 336.03125 Z M 14.105469 39.03125 " clip-rule="nonzero"/></clipPath></defs><g clip-path="url(#id1)"><path fill="#000000" d="M 129.667969 324.300781 C 129.667969 331.648438 125.738281 336.03125 120.167969 336.03125 C 118.207031 336.03125 116.015625 335.484375 113.699219 334.324219 L 23.878906 288.785156 C 18.601562 286.113281 14.285156 279.023438 14.285156 273.058594 L 14.285156 49.859375 C 14.285156 43.960938 17.410156 40.480469 21.882812 40.480469 C 23.460938 40.480469 25.234375 40.898438 27.066406 41.835938 L 30.222656 43.445312 C 30.222656 43.445312 30.253906 43.445312 30.253906 43.445312 L 129.246094 93.621094 C 129.410156 93.71875 129.539062 93.878906 129.667969 94.007812 Z M 233.390625 54.5625 L 239.445312 44.605469 C 241.601562 41.0625 245.558594 39.03125 249.585938 39.03125 C 250.519531 39.03125 251.484375 39.160156 252.417969 39.417969 C 253.125 39.578125 253.867188 39.835938 254.636719 40.222656 L 359.039062 93.140625 C 359.070312 93.140625 359.070312 93.171875 359.070312 93.171875 L 359.167969 93.203125 C 359.234375 93.234375 359.234375 93.332031 359.296875 93.363281 C 359.8125 93.785156 360.039062 94.492188 359.683594 95.074219 L 255.699219 266.390625 L 245.078125 283.855469 L 176.183594 148.792969 Z M 146.148438 233.777344 L 146.148438 126.171875 L 220.160156 271.320312 L 153.585938 237.578125 Z M 360.425781 324.300781 C 360.425781 331.195312 356.335938 335.128906 350.316406 335.128906 C 347.613281 335.128906 344.519531 334.355469 341.269531 332.710938 L 326.363281 325.136719 L 259.789062 291.398438 L 360.425781 125.625 Z M 360.425781 324.300781 " fill-opacity="1" fill-rule="nonzero"/></g></svg>